<svg xmlns="http://www.w3.org/2000/svg" width="170" height="34" viewBox="0 0 170 34">
  <g id="Group_5" data-name="Group 5" transform="translate(-253 151.7)">
    <path id="Path_1" data-name="Path 1" d="M29.1,34.143a17.3,17.3,0,0,1-9.4,2.75C10.1,36.893,3,29.662,3,20.6v-.1A16.4,16.4,0,0,1,19.8,4.1c9.6,0,16.7,7.231,16.7,16.4v.1a16.354,16.354,0,0,1-2.7,9.064l3.2,2.75L32.7,37.3Zm-6.2-5.6-4.3-3.768,4.3-4.99,4.2,3.87a7.846,7.846,0,0,0,.5-3.055v-.1c0-4.583-3.2-8.656-8-8.656-4.7,0-7.9,3.972-7.9,8.555v.1c0,4.583,3.2,8.555,7.9,8.555A6.66,6.66,0,0,0,22.9,28.542Z" transform="translate(250 -155)" fill="#fff"/>
    <path id="Path_2" data-name="Path 2" d="M40.3,27.4V11.7h8.4v13c0,2.6,1.4,4,3.4,4s3.5-1.4,3.5-4v-13H64v24H55.6V32.4a8.93,8.93,0,0,1-7.2,3.8C43.3,36.3,40.3,32.9,40.3,27.4Z" transform="translate(250 -154.4)" fill="#fff"/>
    <path id="Path_3" data-name="Path 3" d="M67.3,28.9h0c0-5.1,3.8-7.6,9.4-7.6a18.582,18.582,0,0,1,5.8.9v-.4c0-2.5-1.6-3.9-4.8-3.9a17.643,17.643,0,0,0-6.6,1.3l-1.7-5.9a24.217,24.217,0,0,1,9.7-1.9c4.3,0,7.2,1,9.1,2.9,1.8,1.8,2.6,4.3,2.6,7.6V35.7H82.5V33.2a9.066,9.066,0,0,1-7.1,3C70.9,36.3,67.3,33.6,67.3,28.9ZM82.6,27V25.9a7.788,7.788,0,0,0-3.3-.6c-2.4,0-3.9,1.2-3.9,3v.1c0,1.6,1.2,2.6,3,2.6A3.887,3.887,0,0,0,82.6,27Z" transform="translate(250 -154.4)" fill="#fff"/>
    <path id="Path_4" data-name="Path 4" d="M95.3,3.4h8.4v33H95.3Z" transform="translate(250 -155)" fill="#fff"/>
    <path id="Path_5" data-name="Path 5" d="M107.5,24.172h0c0-8.044,4.9-12.83,10.6-12.83a9.043,9.043,0,0,1,7.4,3.564V3.4h8.4V36.391h-8.4V33.133a8.717,8.717,0,0,1-7.3,3.767C112.4,36.9,107.5,32.012,107.5,24.172Zm18.1,0h0c0-3.258-2.2-5.6-4.9-5.6s-4.9,2.24-4.9,5.5v.1c0,3.258,2.2,5.6,4.9,5.6A5.314,5.314,0,0,0,125.6,24.172Z" transform="translate(250 -155)" fill="#fff"/>
    <path id="Path_6" data-name="Path 6" d="M137.4,23.8h0c0-6.9,5.6-12.6,13.3-12.6s13.2,5.6,13.2,12.5v.1c0,6.8-5.6,12.6-13.3,12.6C143,36.3,137.4,30.7,137.4,23.8Zm18.3,0h0a5.217,5.217,0,0,0-5.1-5.5c-3.1,0-5,2.4-5,5.3v.1a5.19,5.19,0,0,0,5.1,5.4C153.8,29.2,155.7,26.7,155.7,23.8Z" transform="translate(250 -154.4)" fill="#fff"/>
    <path id="Path_7" data-name="Path 7" d="M165,8.6h-1V4.3h-1.6v-1h4.2v.9H165Zm5.4-1.2h-.1l-1.6-2.5V8.6h-1V3.3h1.1l1.6,2.5L172,3.3h1V8.5h-1V4.9Z" transform="translate(250 -155)" fill="#fff"/>
  </g>
</svg>
